<?xml version="1.0" encoding="UTF-8"?>
<svg id="Layer_1" data-name="Layer 1" xmlns="http://www.w3.org/2000/svg" viewBox="0 0 379.75 373.21">
  <defs>
    <style>
      .cls-1 {
        fill: #000;
        stroke-width: 0px;
      }
    </style>
  </defs>
  <path class="cls-1" d="M185.87,373.21c-46.71-.64-90.4-17.5-127.07-51.34-25.5-23.53-43.81-52.13-52.18-85.99C-9.96,168.81,4.41,108.94,51.83,58.23,77.73,30.53,109.91,12.36,147.14,4.73c59.31-12.15,114.1-1.26,162.1,36.56,38.24,30.13,61.63,69.72,68.39,118.11,8.52,61-8.58,114.4-52.02,158.14-37.34,37.59-83.44,55.51-139.74,55.66ZM264.58,24.55c1.85,1.52,3.44,3.16,2.85,5.87-.85,3.94-4.72,2.51-7.56,3.8,3.27,3.3,6.74,3.61,10.35,2.47,2.02-.64,3.25-2.36,2.97-4.65-.48-3.97-3.08-6.05-6.69-7.11-.63-.19-1.3-.24-1.95-.36-3.1-2.3-6.9-2.99-10.66-4.96,1.19,6.92-.89,13.05-4.29,17.76-3.07,4.26-.96,4.27,1.89,5.12,1.35.4,2.56,1.57,4.08.92-1.29-6.84,2.48-12.18,4.99-17.83.72-1.63,2.52-1.26,4.01-1.04ZM189.47,38.42c-8.91.12-17.57.45-26.11,2.06-26.87,5.08-51.01,15.86-71.96,33.75-30.57,26.1-48.78,58.84-52.36,98.89-3.15,35.19,4.71,68.15,25.81,96.87,36.81,50.11,86.66,70.96,148.2,63.03,39.98-5.15,71.99-25.1,97.15-56,17.44-21.42,27.19-46.28,30.32-73.84,3.11-27.38-.41-53.82-12.77-78.3-28.57-56.58-75.77-84.08-138.28-86.47ZM121.64,351.73c-1.06-7.78,3.08-17.33,8.51-20.27-3.78-2.81-7.28-3.43-11.28-.24-2.36,1.89-5.11,5.45-8.02,3.99-3.32-1.66-1.54-6.06-1.4-9.16.22-4.91-1.25-8.3-5.92-10.16-.3,5.79-6.97,13.94-13.26,15.94,1.96,1.76,3.77,3.38,6.81,6.11-3.19-6.46,1.75-8.61,3.53-12.07.42-.82,1.2-1.79,2.38-1.24,1.11.52.9,1.7.82,2.65-.25,3.15-.67,6.28-.84,9.43-.08,1.59-.64,3.56.97,4.65,1.83,1.22,3.03-.68,4.33-1.5,2.67-1.68,5.21-3.57,7.84-5.32.83-.55,1.84-1.06,2.78-.41.98.68.8,1.8.39,2.72-1.67,3.78-2.13,8.65-8.52,8.64,3.29,3.21,7.01,4.15,10.87,6.24ZM322.97,96.74c.27-3.58,1.42-6.16,2.48-8.76.64-1.56,1.27-2.78,3.5-2.83,6.53-.15,8.41-3.72,4.58-9.18-2.81-4.01-6.43-7.47-9.5-10.97-4.37,5.93-8.92,11.09-15.46,14.48,1.62,1.9,3.41,4.01,5.17,6.08.31-.17.55-.23.55-.3-.06-3.2,1.53-5.34,4.35-6.6,1.03-.46,2.06.04,2.58.95,1.47,2.55.22,4.92-.99,7.04-2.26,3.96-.97,6.88,2.75,10.09ZM223.07,364.71c3.14-1.62,6.18-.87,8.55-3.09-4.71-1.55-4.36-5.86-5.43-9.35-.43-1.39-1.03-3,.39-4.19,1.45-1.22,2.88-.22,4.16.45,5.17,2.73,10.53,4.98,16.1,6.73,1.52.48,3.24,1.77,4.67.32,1.69-1.71-.07-3.42-.63-5.03-1.84-5.33-6.03-9.98-4.24-16.59-2.45.86-4.46,1.41-6.62,3.41,4.99.92,5.45,4.98,6.77,8.21,1.28,3.14-.17,4.41-3.49,3.37-4.8-1.5-9.28-3.69-13.58-6.23-3.49-2.06-6.83-2.13-10.31-.05,5.09,4.66,7.51,16.89,3.67,22.04ZM198.02,356.82c1.64,2.91,3.06,5.76.38,8.02-2.34,1.98-5.4,1.34-8.05.17-4.51-2-6.22-9.66-3.48-14.98,2.32-4.51,7.49-5.55,12.36-2.49,1.22.77,2.25,2.18,3.96,1.41.31-.14.6-.87.51-1.24-.47-1.88-1.97-2.73-3.69-2.79-3.64-.13-7.36-.46-10.92.1-6.13.96-11.17,8.76-9.63,14.19,1.58,5.59,7.56,8.58,16.45,8.23,7.08-.28,8.22-1.27,9.53-8.33.17-.92,1.31-1.62.41-3.04-2.27.22-4.7.45-7.82.75ZM292.77,331.61c-6.68-2.21-12.19-5.63-18.07-8.26-1.6-.72-3.29-2.61-4.98-1.29-1.78,1.39-.74,3.73-.41,5.64,1.06,6.2,2.45,12.38.62,19.07,1.95-1.04,3.65-1.94,5.59-2.97-2.17-2.07-4.45-4.23-2.39-6.9,2.01-2.61,4.72-4.82,8.59-3.67,2.74.81,2.5,2.86,1.09,5.99,3.97-3.03,6.83-5.21,9.96-7.6ZM136.18,357.55c2.86.93,4.96,1.61,7.98,2.59-1.7-2.89-2.13-5.18.56-6.46,3.01-1.43,5.97-.57,8.41,1.37,2.51,1.98,1.91,4.53-.03,7.06,3.51.75,6.55,1.4,10.3,2.2-4.15-6.59-4.31-13.73-6.41-20.3-.43-1.36-.45-3.24-2.26-3.55-1.6-.27-2.05,1.45-2.9,2.4-4.6,5.14-8.15,11.35-15.65,14.68ZM289.65,63.24c2.44,1.81,4.88,3.61,7.35,5.44,1.35-6.96,2.62-13.49,3.86-20.02.28-1.48.67-3.09-.7-4.19-1.65-1.32-3.13-.18-4.55.68-4.41,2.68-8.83,5.34-13.2,8.08-1.04.65-2.67.87-2.58,2.62.01.24.38.57.65.69,2.11.93,1.85-1.36,2.72-2.1,1.81-1.54,3.68-2.3,5.91-1.02,2.06,1.18,3.95,2.44,3.91,5.28-.03,2.37-.76,3.88-3.38,4.53ZM367.31,183.4c2.39.43,4.23.13,4.67-2.04.6-2.92.99-6.07-.08-8.89-.99-2.61-2.55-5.15-6.07-5.04-3.45.1-4.93,2.38-5.84,5.24-.5,1.58-.72,3.26-1.28,4.82-.89,2.49-1.77,5.81-5.28,4.45-3.09-1.19-3.17-4.38-2.28-7.31.28-.92.94-1.74,1.49-2.56.54-.82,1.43-1.55.86-2.63-.17-.32-.85-.51-1.3-.51-1.39.01-2.16.88-2.29,2.17-.39,3.81-.88,7.65,1.19,11.21,1.33,2.29,3.04,4.05,5.93,3.8,2.86-.25,4.4-2.12,5.19-4.71.63-2.07,1.2-4.16,1.79-6.23.63-2.18,1.42-4.47,4.29-3.69,3.27.9,3.07,3.77,2.34,6.16-.6,1.95-2.07,3.64-3.34,5.76ZM348.17,97.16c-2.59,7.11-7.26,11.91-11.07,17.3-.82,1.16-2.45,2.21-1.68,3.85.79,1.68,2.62.97,4.05,1.04,6.96.34,14.09-1.22,21.26,2.47-.81-1.65-1.3-2.68-1.82-3.7-.58-1.15-1.18-2.28-1.83-3.53-2.1,2.72-10.9,4.55-13.17,2.86-.46-.34-.85-1.05-.9-1.63-.28-3.09,7.55-9.7,10.92-9.08-1.77-2.94-3.48-5.76-5.78-9.57ZM85.56,66.26c5.33.38,8.97-2.99,12.39-6.76.79-.87,1.56-1.82,1.2-3.1-.11-.37-.68-.92-.96-.88-1.46.23-1.42,1.67-1.87,2.66-1.9,4.21-4.85,6.23-9.55,4.79-5.02-1.54-9.02-7.2-8.47-12.19.51-4.7,3.65-6.35,7.95-6.57,1.1-.06,2.45.4,3.08-.97.14-.31-.15-.98-.44-1.3-1.05-1.18-2.31-1.04-3.64-.45-3.77,1.67-6.69,4.39-9.02,7.67-2.34,3.3-3.3,7.03-1,10.76,2.26,3.68,5.29,6.42,10.34,6.34ZM46.51,107.59c3.26,1.22,7.5-1.36,8.5-5.09.81-3.01,1.49-6.08-1.93-8.44-3.17-2.19-5.81-1.68-8.59.48-1.3,1.01-2.65,2.03-4.13,2.74-1.57.76-3.35.85-4.47-.81-1.06-1.57-.51-3.16.48-4.63,1.05-1.55,2.6-1.92,4.32-2,.94-.04,2.31.1,1.75-1.49-.35-.99-1.48-1.51-2.49-1.12-2.95,1.13-4.92,3.31-5.94,6.29-1.02,2.99-.41,5.58,2.19,7.5,2.52,1.86,4.95,1.37,7.31-.43,1.45-1.11,2.92-2.2,4.47-3.15,1.64-.99,3.51-1.61,4.93.23,1.48,1.91,1.42,4.09-.14,5.94-1.56,1.85-3.7,3.01-6.28,3.97ZM368.07,147.23c-.94-3.44-1.79-6.56-2.56-9.38-6.18,5.21-13.25,6.19-20.78,6.67.54,2.56,1.08,5.07,1.55,7.26,6.88-3.4,13.48-6.38,21.8-4.55ZM51.57,72.23c7.5,2.48,12.1,7.84,16.02,13.78,1.57-1.36,3.17-2.74,4.8-4.15-6.11-4.33-11.96-8.48-15.16-15.72-2.01,2.16-3.79,4.08-5.66,6.09ZM30.95,228.19c-.02-4.59-3.59-3.86-6.3-4.49-5-1.16-5.16,2.77-5.44,5.62-.54,5.35,4.55,4.85,7.35,5.23,4.33.59,2.84-4.22,4.39-6.37ZM345.57,267.84c.14-2.67-2.94-8.43-4.21-8.56-2.21-.23-8.07,3.54-7.59,5.08.88,2.81.76,6.91,5.13,6.78,2.65-.08,5.53-.81,6.67-3.3ZM171.93,26.83c1.5-.1,6.08-5.22,6.07-6.51,0-1.16-5.66-5.99-6.98-5.96-1.24.03-6.03,5.85-5.6,7.17,1.03,3.2,4.09,4.05,6.51,5.3Z"/>
  <path class="cls-1" d="M291.09,85.59c-4.29,5.17-8.3,9.97-12.27,14.81-5.31,6.47-5.26,6.46.22,12.82,5.48,6.35,9.94,13.37,13.17,21.11,1.9,4.56,4.28,7.12,9.29,3.83.38-.25.95-.3,1.43-.31.26,0,.52.3.87.53-1.2,2.99-6.56,2.25-6.14,6.19.33,3.07,1.94,6,2.8,9.03,2.29,8.03,3.53,16.26,4.13,24.57.2,2.85,1.22,4.11,4.08,4.44,5.94.69,11.86,1.64,17.78,2.49,1.1.16,2.35-.03,3.36,1.34-2.01,2.29-4.8,1.86-7.27,2.09-4.63.44-9.31.19-13.94,1.05-2.58.48-3.81,1.79-3.84,4.34-.14,10.98-3.19,21.32-6.86,31.54-2.11,5.88-2.02,5.91,2.65,10.83-6.56-1.71-7.84,2.94-9.95,6.68-3.95,6.96-8.15,13.79-13.94,19.4-2.44,2.37-2.53,4.22-.31,6.74,3.86,4.37,7.52,8.91,11.19,13.44.98,1.21,2.7,2.05,2.33,4.45-3.36-.66-5.23-3.36-7.59-5.17-4.2-3.23-7.52-8.81-12.56-9.44-5.39-.67-8.46,5.68-12.82,8.58-4.46,2.96-9.11,5.51-13.83,7.96-3.49,1.81-8.18,2.83-5.17,9.46-4.02-5.85-8.13-3.01-12.17-1.85-9.13,2.6-18.24,5.36-27.88,5.28-3.27-.03-4.66,1.5-5.12,4.76-.89,6.18-.87,12.54-2.93,19.12-2.06-1.73-1.36-3.65-1.55-5.26-.4-3.3-.53-6.64-1.02-9.93-1.29-8.67-1.94-8.71-8.96-8.9-8.19-.23-16.08-2.28-23.84-5-8.7-3.05-8.77-2.85-13.79,3.77-.18-.22-.56-.49-.53-.67,1.7-7.63,1.81-7.85-5.22-11.06-7.85-3.58-14.53-8.77-20.91-14.38-2.78-2.45-4.87-2.56-7.65.09-3.85,3.67-8.02,7.02-12.24,10.27-1.44,1.11-3.04,4.13-4.64,2.6-1.73-1.65,1.26-3.23,2.35-4.66,3.32-4.38,6.75-8.68,10.32-12.85,1.99-2.33,1.93-4.12-.07-6.46-7.09-8.26-13.04-17.31-17.28-27.35-1.54-3.64-4.06-4.29-8.26-3.79,6.31-4.63,2.57-9.44,1.38-14.15-1.79-7.1-3.97-14.12-3.62-21.59.2-4.27-1.91-6.16-6.24-6.67-6.13-.72-12.44-.46-18.46-2.81,4.77-2.16,9.9-1.99,14.84-2.47,8.15-.79,9.15-1.28,9.73-9.38.71-9.89,2.81-19.46,6.61-28.57,1.87-4.48,1.5-7.29-3.41-8.78-.44-.13-.84-.54-1.14-.91-.17-.21-.12-.61-.2-1.05.43-.15.92-.51,1.28-.41,7.15,1.99,7.35,2.09,10.5-4.79,3.17-6.93,8.36-12.4,12.83-18.35,2.94-3.91,2.67-6.5-.39-9.91-4.41-4.91-8.45-10.16-12.78-15.44,2.29-1.46,3.19.04,4.22.89,4.47,3.73,8.99,7.42,13.35,11.29,2.9,2.57,5.32,2.53,8.29-.06,7.43-6.47,15.44-12.09,24.45-16.25,7.38-3.41,7.31-3.57,6.52-10.96.3.01.83-.06.87.06,2.1,5.55,5.69,5.56,10.69,3.69,7.98-2.99,16.49-3.99,24.95-4.7,4.08-.34,5.29-2.5,5.52-6.17.35-5.58,1.02-11.13,2.08-16.73,2.25,2.37,2.12,5.33,2.35,8.09,1.15,13.72,1.09,13.82,14.49,15.42,7.18.86,14.12,2.76,20.68,5.51,4.11,1.72,8.93-.71,12.79,3.94,3.08,3.72,8.83,5.13,13.11,7.98,4.15,2.76,8.19,5.79,11.83,9.18,3.74,3.49,6.54,3.28,10.12-.27,4.12-4.1,8.79-7.64,13.25-11.4.85-.71,1.6-1.78,4.13-.78ZM202.7,285.37c17.73-2.47,35.36-9.41,50.15-22.9,2.43-2.22,2-3.8-.23-5.65-9.98-8.28-19.96-16.56-29.88-24.92-2.09-1.76-3.93-1.84-6.31-.55-3.35,1.81-6.63,3.93-10.44,4.67-4.89.95-6.71,3.99-7.13,8.74-1.04,11.58-2.41,23.13-3.66,34.7-.57,5.24.17,6.05,7.51,5.92ZM183.23,276.51c-1.05-9.52-2.48-21.56-3.65-33.63-.31-3.16-1.68-4.83-4.61-5.6-4.7-1.23-9.1-3.17-13.17-5.83-1.56-1.02-2.9-1.21-4.48.14-10.39,8.84-20.83,17.62-31.27,26.39-1.85,1.55-2.53,3.04-.36,4.87,14.89,12.54,31.91,20.33,51.31,22.43,6.2.67,6.52,0,6.24-8.76ZM281.86,192.74c-12.63,1.16-24.21,2.21-35.79,3.28-3.47.32-5.86,1.76-6.61,5.56-.81,4.11-2.9,7.8-4.98,11.39-1.6,2.76-1.16,4.7.9,7.06,8.29,9.54,16.47,19.17,24.48,28.94,2.63,3.21,4.28,3.07,6.79-.12,11.14-14.16,18.17-30.05,21.14-47.81,1.34-8.05.9-8.71-5.93-8.31ZM90.84,200.98c2.19,17.16,9.82,34.37,22.47,49.39,2.28,2.7,3.75,1.38,5.49-.71,7.55-9.08,15.03-18.21,22.89-27.02,3.27-3.66,4.08-6.73.99-10.82-2.13-2.81-2.64-6.43-3.51-9.8-.91-3.51-2.94-5.01-6.75-5.29-11.93-.87-23.83-2.1-35.73-3.36-5.72-.6-6.03-.49-5.85,7.6ZM194.85,91.84c1.37,13.04,2.73,26.09,4.13,39.13.26,2.46,1.82,3.74,4.17,4.33,4.37,1.1,8.5,2.73,12.21,5.41,1.93,1.39,4.07,2.02,6.43.33,10.82-7.77,20.63-16.76,30.78-25.34,1.92-1.63,1.95-3.14-.12-4.9-15.41-13.11-33.35-20.26-53.27-22.8-2.89-.37-4.52.7-4.33,3.84ZM280.13,181.23c8.06.23,8.44-.35,7.59-7.01-2.33-18.13-9.82-34.02-20.53-48.63-2.76-3.76-4.6-3.92-7.5-.31-7.81,9.73-15.81,19.31-23.79,28.91-1.45,1.75-1.84,3.39-.72,5.45,2.23,4.13,3.5,8.64,4.61,13.15.75,3.04,2.38,4.4,5.5,4.71,12.07,1.19,24.13,2.57,34.86,3.73ZM99.5,180.31c9.18-.99,21.08-2.33,32.99-3.53,3.08-.31,4.7-1.73,5.52-4.7,1.15-4.18,2.74-8.25,5.2-11.84,1.78-2.59,1.71-4.48-.39-6.98-8.03-9.55-15.86-19.27-23.68-29-2.27-2.82-4.17-2.73-6.41-.04-12.03,14.41-19.52,30.86-21.91,49.49-.86,6.68-.55,6.72,8.68,6.6ZM183.27,92.77c.51-3.66-.92-4.89-5.41-4.41-19.15,2.06-35.85,9.28-50.35,21.98-3.21,2.81-3.63,4.41-.21,7.17,9.46,7.62,18.75,15.44,28.09,23.2,1.87,1.56,3.62,2.06,5.81.47,4.09-2.96,8.68-4.91,13.63-5.89,2.71-.54,4-2.24,4.29-4.8,1.39-12.39,2.73-24.79,4.15-37.72ZM189.07,89.98c-1.78,2.46-1.94,4.04-2.11,5.64-1.97,19.03-3.92,38.06-5.94,57.08-.82,7.73,2.63,17.46,8.04,22.08v-84.81ZM93.57,187.32c.01.39.03.78.04,1.17,22.48,2.28,44.93,4.76,67.44,6.7,6.64.57,11.81-4.1,17.24-7.87h-84.72ZM190.06,281.71c.31.02.62.05.92.07,2.4-22.59,5.2-45.15,6.91-67.79.43-5.73-3.44-11.31-7.83-15.89v83.61ZM275.18,184.89c-18.34-1.69-36.67-3.41-55.01-5.06-6.56-.59-11.7,3.04-17.17,5.93,24.14-.54,48.15-.47,72.18-.87ZM242.6,132.67c-.52-.49-1.04-.98-1.57-1.47-9.86,8.35-19.72,16.7-29.59,25.05-1.18,1-2.47,1.9-.89,3.61,1.31,1.42,2.54,1.28,3.85.02,9.4-9.07,18.8-18.14,28.2-27.21ZM136.09,135.2c-.38.39-.76.77-1.13,1.16,8.55,9.89,17.09,19.78,25.65,29.66.74.86,1.53,2.06,2.83.85,1.24-1.16,1.6-2.54.26-3.92-2.44-2.49-4.9-4.97-7.36-7.44-6.75-6.77-13.5-13.54-20.25-20.31ZM209.04,176.11c.14-2.01-5.49-8.1-7.4-8.05-.94.03-1.55.55-1.94,1.3-1.77,3.35-3.59,6.68-5.23,10.09-.94,1.95.06,3.04,2.03,2.45,3.78-1.13,7.47-2.55,11.19-3.89.83-.3,1.25-1.02,1.36-1.9ZM239.49,233.44c-.71-1.13-1.12-2.01-1.73-2.72-6.58-7.51-13.18-14.99-19.8-22.46-1.04-1.18-1.98-3.15-3.92-1.21-1.75,1.76-.23,3.01.93,4.18,7.04,7.08,14.09,14.14,21.17,21.18.67.67,1.33,1.54,3.35,1.02ZM134.08,243.65c.24.25.47.51.71.76,10.88-9.42,21.75-18.86,32.64-28.26,1.17-1.01,1.2-1.85.05-2.86-1.37-1.21-2.4-.54-3.43.49-9.99,9.96-19.98,19.91-29.97,29.87ZM184.16,179.29c-1-2.14-2.06-4.56-3.24-6.91-2.71-5.39-3.95-5.45-8.14-1.28-2.89,2.87-3.05,4.78.99,6.46,2.59,1.07,5.03,2.47,7.58,3.63,1.57.71,2.99.89,2.81-1.9ZM177.27,205.11c.48-.24,1.07-.34,1.33-.69,2.45-3.2,4.18-6.82,5.32-10.62.54-1.82-1.25-2.16-2.64-1.6-2.46.99-4.9,2.09-7.23,3.36-1.71.93-3.9,2.06-2.7,4.55,1.17,2.43,3.19,4.19,5.92,5ZM201.9,205c2.16-1.38,4.94-2.87,5.74-5.93.7-2.69-2.06-2.93-3.72-3.76-2.21-1.11-4.5-2.08-6.76-3.08-.77-.34-1.62-.54-2.33.07-.83.72-.25,1.54.07,2.25,1.29,2.86,2.63,5.7,3.94,8.55.51,1.11,1.18,2,3.06,1.9Z"/>
</svg>